<svg width="35" height="29" viewBox="0 0 35 29" fill="none" xmlns="http://www.w3.org/2000/svg">
<path d="M33.5416 1.37502C32.1451 2.36009 30.5988 3.11351 28.9624 3.60627C28.0841 2.59639 26.9169 1.88061 25.6185 1.55574C24.3202 1.23087 22.9533 1.31259 21.703 1.78984C20.4526 2.26709 19.3789 3.11685 18.6272 4.22419C17.8755 5.33152 17.482 6.64301 17.4999 7.98127V9.4396C14.9371 9.50605 12.3976 8.93766 10.1076 7.78504C7.81767 6.63242 5.8483 4.93136 4.37492 2.83335C4.37492 2.83335 -1.45841 15.9583 11.6666 21.7917C8.66319 23.8304 5.08536 24.8526 1.45825 24.7083C14.5833 32 30.6249 24.7083 30.6249 7.93752C30.6236 7.5313 30.5845 7.12609 30.5083 6.7271C31.9966 5.25928 33.047 3.40606 33.5416 1.37502V1.37502Z" stroke="white" stroke-width="2" stroke-linecap="round" stroke-linejoin="round"/>
</svg>
